<?xml version="1.0" encoding="UTF-8" standalone="no"?>
<!DOCTYPE svg PUBLIC "-//W3C//DTD SVG 1.1//EN" "http://www.w3.org/Graphics/SVG/1.1/DTD/svg11.dtd">
<svg xmlns="http://www.w3.org/2000/svg" version="1.1" viewBox="0.00 0.00 180.00 190.00">
<path fill="#000000" d="
  M 92.04 118.14
  C 96.62 121.07 100.66 125.47 104.34 129.51
  Q 104.68 129.89 104.72 130.40
  Q 106.36 150.26 106.23 155.50
  C 105.98 165.69 98.35 170.72 88.79 169.91
  C 84.59 169.55 81.51 166.72 77.31 166.27
  C 63.49 164.77 65.00 140.58 67.48 132.25
  C 68.89 127.51 71.79 119.35 69.97 118.15
  Q 69.53 117.86 69.13 118.22
  C 65.20 121.73 60.15 122.33 55.16 123.45
  A 1.72 1.70 -88.1 0 0 53.89 124.66
  Q 51.59 132.79 49.11 141.05
  C 46.82 148.67 41.51 149.68 33.86 149.60
  Q 27.54 149.54 21.21 149.49
  C 19.40 149.48 15.61 150.04 12.88 149.85
  Q 11.51 149.75 12.76 149.18
  Q 25.88 143.22 39.04 137.55
  C 44.23 135.32 46.37 128.75 47.90 123.87
  A 1.46 1.46 0.0 0 0 47.00 122.05
  C 38.11 118.91 28.59 115.33 21.93 108.35
  A 1.70 1.70 0.0 0 1 22.84 105.51
  Q 27.35 104.64 31.82 105.08
  Q 32.33 105.13 32.73 104.82
  Q 34.41 103.51 36.66 104.06
  Q 37.16 104.18 37.59 103.89
  C 39.06 102.87 40.88 102.89 42.19 102.48
  C 47.48 100.82 51.79 99.66 55.18 98.02
  C 57.23 97.02 58.37 93.72 58.92 91.73
  A 1.62 1.61 88.3 0 0 56.84 89.77
  Q 54.33 90.64 51.58 90.77
  Q 50.51 90.82 51.45 90.31
  L 57.88 86.76
  A 2.21 2.21 0.0 0 0 58.80 83.84
  C 57.31 80.84 54.62 76.81 55.10 73.47
  C 55.58 70.20 57.47 65.34 61.40 64.89
  Q 61.88 64.84 62.22 64.50
  L 65.64 61.18
  A 1.60 1.60 0.0 0 0 65.48 58.75
  C 58.42 53.49 49.74 46.76 45.89 38.51
  A 0.71 0.71 0.0 0 1 46.74 37.53
  L 54.63 39.90
  Q 55.10 40.04 55.57 39.87
  C 57.53 39.13 59.45 38.81 61.35 37.95
  C 67.76 35.05 74.14 31.69 81.22 30.72
  Q 83.01 30.48 82.17 28.87
  Q 81.62 27.84 80.73 27.02
  Q 75.05 21.73 69.66 16.13
  Q 69.33 15.79 69.00 16.13
  Q 68.91 16.22 68.81 16.31
  Q 68.62 16.50 68.81 16.69
  L 69.34 17.21
  Q 70.29 18.16 69.04 17.68
  Q 64.51 15.92 62.49 11.51
  A 0.83 0.83 0.0 0 1 62.97 10.38
  C 69.72 7.95 73.11 10.63 79.02 14.94
  C 82.26 17.30 89.25 21.92 90.52 25.73
  Q 90.70 26.25 90.55 26.79
  L 89.91 29.18
  Q 89.73 29.88 90.45 29.92
  C 95.88 30.23 104.65 32.78 107.86 37.75
  Q 108.13 38.18 108.02 38.68
  Q 107.67 40.19 108.68 41.28
  A 1.61 1.61 0.0 0 1 108.76 43.35
  C 105.65 47.29 103.08 48.85 97.84 50.61
  Q 90.51 53.07 85.34 58.93
  C 83.13 61.44 81.02 62.10 77.88 61.70
  Q 77.25 61.62 77.11 62.25
  Q 76.77 63.80 78.07 64.70
  Q 78.45 64.97 78.86 64.72
  L 84.04 61.54
  Q 84.46 61.28 84.92 61.47
  Q 91.35 64.15 98.02 66.20
  Q 100.90 67.09 101.11 69.99
  C 101.35 73.35 96.89 77.25 94.50 79.28
  A 0.40 0.40 0.0 0 0 94.75 79.98
  C 100.36 80.04 105.83 80.50 111.38 79.05
  C 112.52 78.75 121.84 76.42 121.08 79.12
  Q 120.93 79.65 121.39 79.96
  L 125.28 82.62
  Q 125.69 82.91 126.19 82.91
  C 129.56 82.93 133.44 82.21 135.79 85.38
  Q 136.11 85.83 136.66 85.89
  Q 139.99 86.25 140.87 89.53
  Q 141.00 90.04 140.72 90.49
  Q 139.49 92.42 140.08 94.91
  A 2.11 2.10 -7.9 0 1 138.12 97.50
  C 130.69 97.83 123.29 96.77 116.13 98.51
  Q 115.62 98.64 115.21 98.31
  L 113.62 97.06
  Q 113.18 96.71 112.68 96.96
  Q 111.52 97.55 110.13 97.72
  A 1.02 1.02 0.0 0 0 109.64 99.56
  Q 116.72 104.75 121.88 110.35
  C 124.21 112.89 127.20 115.69 130.18 117.18
  Q 143.83 124.00 156.82 132.00
  C 158.69 133.14 160.58 135.48 163.70 136.06
  C 166.00 136.48 170.33 138.39 170.02 141.30
  Q 169.96 141.86 170.51 141.97
  C 171.25 142.11 172.34 141.77 172.89 142.33
  Q 173.26 142.72 172.85 143.07
  C 169.74 145.75 163.49 146.25 159.53 146.45
  C 156.68 146.59 153.51 145.66 150.33 145.74
  Q 149.82 145.76 149.42 146.07
  C 147.31 147.70 144.84 148.06 142.49 149.20
  Q 136.54 152.08 130.32 147.40
  Q 120.08 139.70 114.22 132.31
  C 107.22 123.48 99.86 113.43 91.65 105.75
  Q 91.26 105.38 90.75 105.54
  C 83.95 107.62 77.48 111.66 71.24 115.06
  A 0.61 0.61 0.0 0 0 71.22 116.11
  C 78.32 120.43 85.68 114.08 92.04 118.14
  Z
  M 71.73 67.16
  L 74.47 65.81
  Q 75.00 65.55 75.00 64.96
  L 75.00 63.56
  Q 75.00 62.94 74.44 63.20
  L 70.52 65.06
  Q 70.07 65.27 70.03 65.76
  L 69.90 67.51
  Q 69.81 68.61 70.66 67.91
  L 71.02 67.62
  Q 71.35 67.35 71.73 67.16
  Z
  M 88.06 86.69
  Q 86.73 85.00 84.72 84.35
  Q 84.20 84.18 83.81 84.57
  L 83.31 85.06
  Q 82.92 85.45 83.42 85.70
  L 88.47 88.22
  A 0.37 0.37 0.0 0 0 88.99 87.78
  Q 88.70 86.85 88.06 86.69
  Z
  M 72.26 91.63
  L 66.15 88.71
  Q 65.51 88.41 65.04 88.93
  Q 62.58 91.67 63.16 95.50
  A 0.58 0.57 74.7 0 0 63.94 95.95
  L 72.23 92.57
  Q 73.31 92.13 72.26 91.63
  Z
  M 83.09 127.55
  C 77.17 126.98 75.89 131.60 76.46 136.36
  Q 76.51 136.84 76.99 136.80
  L 86.27 135.92
  Q 86.87 135.86 87.02 135.28
  C 87.89 131.95 87.28 127.95 83.09 127.55
  Z
  M 87.56 145.44
  L 80.03 144.82
  A 2.21 2.21 0.0 0 0 77.71 146.48
  Q 76.26 152.22 80.99 155.34
  A 1.62 1.62 0.0 0 0 83.26 154.83
  L 88.21 146.72
  A 0.84 0.84 0.0 0 0 87.56 145.44
  Z"
/>
</svg>
