<?xml version="1.0" encoding="UTF-8" standalone="no"?>
<!DOCTYPE svg PUBLIC "-//W3C//DTD SVG 1.1//EN" "http://www.w3.org/Graphics/SVG/1.1/DTD/svg11.dtd">
<svg xmlns="http://www.w3.org/2000/svg" version="1.1" viewBox="0.00 0.00 180.00 190.00">
<path fill="#000000" d="
  M 101.47 143.05
  Q 112.26 146.35 123.24 149.53
  C 136.11 153.26 145.63 159.78 147.39 174.03
  Q 147.46 174.59 146.91 174.47
  Q 134.42 171.59 124.43 163.58
  C 117.66 158.15 104.26 154.49 95.77 152.17
  C 91.65 151.04 90.30 155.06 89.02 154.78
  Q 88.65 154.69 88.50 154.34
  L 87.98 153.09
  Q 87.71 152.43 87.07 152.76
  Q 83.21 154.78 80.29 157.99
  Q 79.97 158.34 79.53 158.50
  Q 78.14 159.01 77.22 160.16
  Q 76.90 160.57 76.40 160.71
  C 71.76 162.09 62.54 163.76 58.47 160.48
  C 55.73 158.27 45.48 148.15 50.19 145.30
  C 54.14 142.91 62.71 141.94 67.27 141.91
  Q 67.94 141.91 67.81 141.25
  C 66.36 134.09 66.58 130.93 72.31 125.82
  Q 80.92 118.14 88.93 109.55
  A 0.34 0.34 0.0 0 0 88.69 108.98
  Q 87.37 108.96 86.06 109.82
  C 81.26 113.00 76.75 116.94 71.50 119.31
  Q 66.28 121.67 61.68 126.29
  A 0.64 0.64 0.0 0 1 60.59 125.88
  Q 60.00 118.31 64.25 112.11
  Q 64.55 111.67 65.06 111.52
  C 69.89 110.11 71.76 107.31 75.55 105.01
  Q 76.06 104.69 75.79 104.15
  Q 74.01 100.55 70.07 101.48
  Q 69.12 101.71 69.40 100.77
  Q 70.40 97.43 71.02 93.50
  C 71.75 88.88 65.48 89.58 63.72 86.64
  C 61.64 83.17 67.31 75.89 69.92 73.30
  Q 70.26 72.96 70.11 72.51
  C 69.68 71.14 67.29 73.64 66.73 74.06
  A 0.83 0.82 63.0 0 1 65.46 73.64
  Q 64.86 71.69 63.29 70.48
  Q 58.57 66.85 58.24 60.81
  Q 58.22 60.32 58.50 59.92
  C 59.93 57.85 59.78 57.04 59.32 54.29
  C 58.91 51.87 60.33 50.96 61.96 49.48
  Q 69.43 42.70 77.72 36.87
  A 0.40 0.40 0.0 0 0 77.54 36.15
  Q 75.33 35.87 73.16 36.31
  Q 58.12 39.35 43.14 42.69
  C 35.26 44.44 28.76 47.58 20.25 47.39
  Q 19.67 47.38 19.21 47.05
  L 9.35 39.96
  Q 7.41 38.57 9.61 37.64
  C 13.80 35.88 18.48 36.52 22.78 35.15
  Q 40.29 29.59 47.31 28.55
  C 73.86 24.63 100.72 18.84 127.00 17.23
  Q 129.95 17.05 133.83 17.55
  C 136.10 17.84 137.75 19.08 140.60 17.98
  A 0.90 0.89 61.4 0 1 141.66 18.30
  C 145.05 23.04 149.33 26.34 153.54 30.23
  C 156.73 33.18 162.73 40.45 159.41 44.78
  Q 159.08 45.21 159.00 45.74
  Q 158.41 49.38 154.74 49.87
  Q 154.22 49.94 153.81 50.27
  C 150.13 53.21 137.46 41.07 134.55 38.67
  Q 130.65 35.45 125.84 36.93
  C 120.32 38.61 123.34 33.22 118.61 32.90
  Q 113.47 32.55 108.43 31.48
  C 105.81 30.93 104.70 31.45 103.26 33.51
  Q 98.98 39.64 95.23 45.93
  A 0.87 0.87 0.0 0 0 96.32 47.17
  L 100.38 45.41
  Q 100.85 45.20 101.35 45.34
  C 104.39 46.21 111.81 49.48 107.97 53.80
  Q 107.66 54.16 107.55 54.63
  C 105.87 62.20 105.59 71.31 105.84 78.84
  Q 106.35 94.00 108.04 109.08
  C 108.36 112.02 107.10 114.48 110.28 116.88
  Q 110.70 117.19 110.72 117.70
  Q 110.89 120.73 110.16 122.67
  C 107.60 129.46 105.76 136.52 101.25 142.37
  A 0.44 0.43 27.5 0 0 101.47 143.05
  Z
  M 90.90 58.62
  Q 89.54 59.54 89.16 61.32
  Q 89.01 62.00 89.71 62.00
  L 98.74 62.00
  A 1.45 1.45 0.0 0 0 100.18 60.72
  Q 100.47 58.06 99.44 55.56
  A 1.17 1.15 -11.8 0 0 98.32 54.84
  Q 94.10 54.99 91.61 57.99
  Q 91.30 58.35 90.90 58.62
  Z
  M 91.37 69.25
  C 86.86 69.58 84.60 73.59 85.03 77.78
  A 0.42 0.42 0.0 0 0 85.78 77.99
  L 91.77 69.98
  A 0.46 0.46 0.0 0 0 91.37 69.25
  Z
  M 83.88 89.36
  Q 82.28 91.28 84.70 90.67
  C 88.95 89.59 92.43 86.89 96.15 84.43
  Q 96.61 84.13 97.15 84.27
  L 98.12 84.52
  Q 98.98 84.75 98.99 83.87
  L 99.17 75.05
  A 0.83 0.83 0.0 0 0 97.76 74.43
  Q 90.42 81.54 83.88 89.36
  Z
  M 95.88 100.22
  Q 97.43 100.93 99.09 100.85
  Q 99.80 100.82 99.69 100.12
  L 99.00 95.68
  A 1.17 1.17 0.0 0 0 97.40 94.78
  Q 94.04 96.15 92.02 99.16
  Q 91.47 99.97 92.45 99.98
  L 94.96 100.01
  Q 95.44 100.02 95.88 100.22
  Z
  M 98.34 114.34
  Q 96.10 111.96 94.55 113.55
  Q 92.41 115.73 88.44 122.59
  Q 88.04 123.28 88.71 122.85
  L 98.01 116.96
  A 1.71 1.71 0.0 0 0 98.34 114.34
  Z
  M 73.70 140.99
  C 77.72 141.04 83.03 142.21 85.34 139.34
  Q 90.13 133.40 95.11 127.27
  A 0.83 0.82 -74.4 0 0 94.36 125.93
  C 92.71 126.16 91.14 127.67 90.15 128.28
  C 86.06 130.78 74.95 136.19 73.28 140.36
  Q 73.03 140.98 73.70 140.99
  Z
  M 69.89 151.18
  Q 70.57 151.10 70.76 150.59
  Q 70.99 149.98 70.35 149.81
  C 69.09 149.48 67.27 150.11 68.15 151.85
  Q 68.36 152.26 68.69 151.94
  L 69.02 151.60
  Q 69.38 151.24 69.89 151.18
  Z"
/>
</svg>
