<?xml version="1.0" encoding="UTF-8" standalone="no"?>
<!DOCTYPE svg PUBLIC "-//W3C//DTD SVG 1.1//EN" "http://www.w3.org/Graphics/SVG/1.1/DTD/svg11.dtd">
<svg xmlns="http://www.w3.org/2000/svg" version="1.1" viewBox="0.00 0.00 180.00 190.00">
<path fill="#000000" d="
  M 111.87 132.97
  C 113.73 132.11 115.17 131.28 117.23 131.13
  C 134.38 129.96 152.50 137.18 163.64 150.40
  C 166.44 153.71 167.58 157.70 169.60 161.69
  Q 169.86 162.21 169.52 162.66
  L 163.86 170.06
  A 2.08 2.07 27.1 0 1 161.62 170.78
  Q 156.70 169.30 152.26 166.85
  C 146.71 163.78 141.97 157.97 137.05 153.41
  C 133.55 150.18 125.15 152.52 120.42 153.85
  A 0.80 0.80 0.0 0 1 119.82 152.38
  L 128.90 147.42
  A 0.60 0.60 0.0 0 0 128.94 146.39
  L 110.67 134.43
  Q 110.26 134.16 109.86 134.45
  Q 108.67 135.32 107.98 136.77
  Q 102.90 147.39 93.83 155.48
  Q 91.68 157.39 89.34 157.66
  C 81.50 158.54 79.64 151.58 77.86 145.31
  Q 77.70 144.74 77.19 144.43
  L 71.68 141.08
  A 1.31 1.31 0.0 0 1 71.38 139.10
  C 72.66 137.64 73.99 137.26 75.96 137.84
  Q 81.82 139.56 87.81 140.99
  A 1.34 1.33 24.6 0 0 89.19 140.48
  Q 93.67 134.38 96.07 127.20
  A 1.16 1.16 0.0 0 0 94.68 125.71
  L 92.45 126.27
  Q 91.97 126.39 91.54 126.17
  Q 85.54 123.07 81.18 117.93
  Q 80.82 117.50 80.39 117.86
  Q 77.76 120.13 76.58 121.84
  Q 71.85 128.73 65.85 134.55
  C 64.99 135.39 64.41 136.94 63.70 137.48
  C 61.46 139.18 60.77 140.22 60.82 143.25
  Q 60.92 148.44 59.98 153.57
  Q 59.89 154.05 60.15 154.46
  L 62.66 158.50
  Q 62.93 158.94 62.96 159.47
  C 63.12 162.79 64.98 166.80 61.30 168.81
  Q 60.78 169.09 60.46 168.59
  Q 59.77 167.53 58.49 167.46
  Q 57.95 167.43 57.53 167.08
  L 48.83 159.77
  Q 48.42 159.42 48.38 158.88
  C 48.05 153.68 52.86 152.78 51.93 147.08
  A 0.78 0.78 0.0 0 0 50.93 146.46
  Q 48.06 147.38 45.85 149.13
  Q 43.27 151.17 34.50 153.95
  Q 34.00 154.11 33.68 153.69
  C 31.06 150.23 28.36 146.06 32.65 142.24
  Q 40.78 134.98 47.24 126.11
  A 0.75 0.75 0.0 0 0 46.45 124.94
  Q 42.37 125.97 38.23 125.14
  Q 37.75 125.04 37.37 125.34
  L 33.59 128.31
  Q 33.16 128.66 32.67 128.40
  L 31.24 127.63
  Q 30.78 127.39 30.88 126.87
  Q 31.26 124.97 29.01 124.21
  C 23.50 122.36 5.21 114.12 7.15 106.60
  Q 7.31 106.00 7.90 106.18
  C 9.79 106.75 11.32 107.73 13.23 107.92
  C 18.83 108.47 24.88 108.88 30.22 106.67
  Q 42.60 101.54 53.72 93.19
  A 1.25 1.23 -17.1 0 0 54.22 92.26
  C 54.44 88.04 54.22 85.35 52.79 81.17
  C 51.01 75.98 55.34 73.09 57.84 69.23
  A 1.32 1.32 0.0 0 0 56.99 67.22
  Q 40.80 63.96 24.29 64.30
  A 0.90 0.90 0.0 0 1 23.57 62.84
  Q 24.39 61.83 25.42 60.94
  Q 39.27 49.14 55.04 31.03
  Q 56.86 28.95 55.05 27.22
  Q 53.13 25.39 51.72 23.19
  C 49.82 20.25 52.18 18.37 55.05 19.28
  Q 60.77 21.09 66.53 22.81
  Q 73.78 24.97 77.00 27.26
  C 84.40 32.53 93.15 46.04 84.71 54.46
  C 83.22 55.94 78.97 60.24 77.95 60.43
  Q 77.47 60.52 77.07 60.79
  L 62.25 70.82
  A 0.97 0.96 -27.6 0 0 61.89 71.96
  L 66.13 83.21
  A 1.28 1.28 0.0 0 0 67.79 83.94
  C 76.56 80.48 75.33 86.57 76.79 92.05
  A 1.28 1.27 -7.3 0 0 78.03 93.00
  L 79.10 93.00
  Q 79.94 93.00 79.89 93.84
  L 79.47 100.65
  Q 79.44 101.16 79.14 101.58
  C 76.85 104.86 73.17 107.59 70.75 110.46
  C 68.10 113.59 66.70 118.19 63.82 121.84
  C 63.30 122.50 62.36 124.42 62.34 124.99
  Q 62.24 127.25 63.91 125.95
  L 76.91 115.81
  Q 77.33 115.48 77.35 114.94
  C 77.55 109.86 80.19 106.79 81.28 102.58
  Q 84.10 91.69 84.41 81.04
  A 1.21 1.21 0.0 0 1 86.16 79.99
  Q 90.23 82.04 93.34 85.45
  Q 93.61 85.75 93.69 86.16
  L 95.76 97.43
  Q 95.89 98.18 96.53 97.77
  Q 101.08 94.90 101.41 89.95
  Q 101.83 83.60 101.35 70.22
  C 101.24 66.89 99.81 65.16 96.68 64.48
  Q 96.19 64.37 95.85 64.00
  C 93.70 61.65 93.22 58.36 91.39 55.60
  Q 91.09 55.14 91.57 54.88
  C 94.59 53.27 98.66 60.16 104.38 55.33
  Q 104.86 54.92 105.14 55.50
  Q 106.07 57.40 108.04 56.34
  Q 108.52 56.08 108.81 56.54
  C 110.59 59.42 110.85 62.51 112.20 65.45
  C 114.44 70.28 115.66 76.95 114.71 81.50
  Q 113.46 87.50 113.73 91.24
  C 113.91 93.66 118.25 95.99 120.13 97.35
  Q 120.60 97.69 120.96 97.24
  C 123.51 94.00 128.03 76.10 117.55 80.70
  A 0.29 0.29 0.0 0 1 117.22 80.25
  L 120.25 76.86
  Q 120.60 76.48 121.10 76.34
  C 125.01 75.27 130.76 74.02 134.37 76.43
  C 142.11 81.59 151.47 90.16 150.41 100.40
  C 149.76 106.66 146.54 111.04 143.32 116.10
  C 141.70 118.64 135.35 124.83 131.51 123.14
  C 122.78 119.29 115.62 117.12 114.86 106.03
  Q 114.76 104.64 113.72 105.15
  A 1.15 1.14 82.6 0 0 113.10 105.96
  Q 110.39 119.13 111.21 132.57
  Q 111.25 133.25 111.87 132.97
  Z
  M 99.6895 103.5717
  A 0.27 0.27 0.0 0 0 99.4380 103.2844
  L 98.7196 103.2367
  A 0.27 0.27 0.0 0 0 98.4323 103.4882
  L 97.8305 112.5483
  A 0.27 0.27 0.0 0 0 98.0820 112.8356
  L 98.8004 112.8833
  A 0.27 0.27 0.0 0 0 99.0877 112.6318
  L 99.6895 103.5717
  Z"
/>
</svg>
