<?xml version="1.0" encoding="UTF-8" standalone="no"?>
<!DOCTYPE svg PUBLIC "-//W3C//DTD SVG 1.1//EN" "http://www.w3.org/Graphics/SVG/1.1/DTD/svg11.dtd">
<svg xmlns="http://www.w3.org/2000/svg" version="1.1" viewBox="0.00 0.00 180.00 190.00">
<path fill="#000000" d="
  M 72.26 121.27
  C 77.05 123.12 82.39 123.09 86.86 125.14
  C 90.82 126.96 95.46 127.54 98.88 129.39
  C 102.42 131.31 111.02 136.69 112.52 140.84
  Q 112.78 141.57 112.01 141.66
  L 107.58 142.19
  Q 107.07 142.24 106.77 142.65
  L 105.99 143.68
  Q 105.65 144.12 105.10 144.00
  Q 91.34 140.89 78.77 147.02
  A 0.93 0.93 0.0 0 1 77.45 146.03
  Q 78.04 142.51 80.50 139.99
  A 1.76 1.76 0.0 0 0 80.32 137.37
  C 75.94 133.96 70.37 131.02 67.14 126.80
  Q 66.07 125.39 64.53 126.27
  L 52.25 133.29
  Q 51.80 133.55 51.28 133.51
  C 45.99 133.12 31.73 134.03 27.98 130.85
  C 23.03 126.67 19.92 119.74 17.33 114.38
  C 15.80 111.19 15.82 107.68 14.88 104.16
  Q 14.75 103.66 15.10 103.28
  Q 17.22 101.02 18.24 98.12
  Q 18.63 97.00 18.94 98.14
  Q 19.36 99.69 20.00 103.02
  C 20.91 107.83 29.63 112.68 34.61 115.75
  Q 35.02 116.00 35.47 115.83
  C 47.49 111.40 56.71 103.51 65.04 94.45
  A 0.78 0.77 -64.3 0 0 64.59 93.16
  C 53.97 91.49 43.50 89.96 33.17 86.87
  Q 29.54 85.79 26.79 83.68
  A 0.82 0.81 -28.0 0 1 27.24 82.22
  Q 52.03 80.63 76.85 81.05
  Q 77.52 81.06 77.86 80.49
  L 88.17 63.05
  A 1.69 1.68 24.3 0 0 87.24 60.59
  L 74.47 56.41
  Q 73.91 56.23 73.50 56.66
  C 66.50 64.11 58.22 73.34 47.51 73.51
  A 1.33 1.32 76.4 0 1 46.31 72.77
  C 43.46 66.94 41.22 61.74 45.95 55.95
  C 54.74 45.19 63.58 34.88 71.20 23.19
  Q 74.34 18.37 75.98 12.86
  Q 76.12 12.40 75.97 11.96
  L 73.23 4.01
  A 0.61 0.61 0.0 0 1 73.89 3.21
  C 84.69 4.66 95.08 11.64 94.00 23.92
  C 93.50 29.55 89.27 37.18 86.54 43.00
  C 85.37 45.48 86.10 46.20 88.58 46.67
  Q 99.00 48.64 108.97 52.29
  C 111.35 53.16 112.25 54.63 111.66 57.22
  C 109.70 65.96 106.01 73.59 102.36 81.03
  A 1.59 1.59 0.0 0 0 103.42 83.28
  C 112.95 85.57 122.81 87.91 132.22 88.87
  Q 134.92 89.15 136.54 89.83
  C 144.84 93.31 154.17 96.80 160.02 103.43
  C 161.75 105.39 162.77 107.91 164.14 110.26
  C 165.83 113.19 165.33 116.42 165.22 119.62
  Q 165.20 120.17 164.65 120.19
  C 159.20 120.39 152.92 120.90 147.78 118.79
  C 138.59 115.03 129.34 108.74 118.81 110.14
  Q 106.76 111.74 94.97 114.85
  Q 93.09 115.35 91.94 114.97
  A 0.87 0.87 0.0 0 1 91.83 113.36
  Q 102.57 108.07 112.33 101.08
  A 0.45 0.45 0.0 0 0 112.37 100.38
  C 109.75 98.01 98.82 96.38 95.06 95.83
  Q 94.57 95.76 94.26 96.14
  Q 88.52 103.26 82.52 110.06
  C 79.54 113.45 75.34 116.73 72.06 120.44
  A 0.52 0.52 0.0 0 0 72.26 121.27
  Z"
/>
<path fill="#000000" d="
  M 68.70 161.23
  L 62.72 153.03
  A 0.64 0.64 0.0 0 1 63.23 152.02
  Q 70.14 151.97 76.97 152.01
  C 80.19 152.04 82.63 149.70 85.41 149.73
  Q 85.96 149.73 86.32 150.15
  Q 90.12 154.55 96.00 155.04
  Q 96.60 155.09 97.03 155.50
  Q 98.66 157.05 100.92 157.02
  Q 101.40 157.02 101.82 157.26
  C 107.47 160.59 118.70 167.89 121.11 174.12
  C 122.60 177.96 122.89 186.80 115.85 184.82
  C 113.88 184.26 111.98 183.22 109.95 183.04
  Q 105.36 182.62 101.06 181.15
  C 90.43 177.50 82.19 165.66 70.32 168.60
  Q 66.21 169.62 61.85 170.38
  A 0.72 0.72 0.0 0 1 61.23 169.15
  L 68.62 162.05
  Q 69.02 161.67 68.70 161.23
  Z"
/>
</svg>
